<svg xmlns="http://www.w3.org/2000/svg" width="1280" height="701" viewBox="0 0 1280 701">
<g>
<path d="M 1150.50 637.90 C1144.20,638.67 1061.56,639.00 875.25,639.00 C615.37,639.00 609.00,638.96 609.00,637.12 C609.00,636.09 610.08,632.82 611.39,629.87 C612.71,626.92 616.79,617.53 620.47,609.00 C624.14,600.47 627.87,591.92 628.74,590.00 C630.49,586.16 637.55,569.27 639.41,564.50 C640.05,562.85 641.28,560.15 642.15,558.50 C643.02,556.85 645.64,551.00 647.98,545.50 C650.32,540.00 653.02,533.70 653.99,531.50 C654.96,529.30 659.24,519.40 663.49,509.50 C671.61,490.62 681.18,468.59 683.48,463.50 C684.23,461.85 685.60,458.58 686.53,456.23 L 688.23 451.97 L 921.37 452.24 C944.57,452.26 965.53,452.28 984.45,452.30 C1148.48,452.44 1160.37,452.45 1169.70,457.34 C1171.51,458.29 1173.22,459.42 1175.92,460.77 C1183.41,464.51 1187.00,467.12 1193.42,473.49 C1202.62,482.61 1207.89,490.97 1211.70,502.50 C1214.29,510.33 1214.36,511.17 1214.75,541.74 C1215.20,577.10 1214.52,583.10 1208.56,595.68 C1202.77,607.92 1191.66,620.77 1181.14,627.41 C1173.71,632.10 1160.20,636.72 1150.50,637.90 ZM 950.00 483.00 L 950.00 596.00 L 982.00 596.00 L 982.00 572.50 C982.00,559.58 982.34,549.00 982.76,549.00 C983.18,549.00 985.46,555.19 987.82,562.75 C990.19,570.31 993.51,580.89 995.21,586.25 L 998.31 596.00 L 1015.16 596.00 C1025.74,596.00 1032.00,595.63 1032.00,595.00 C1032.00,594.45 1029.79,588.48 1027.08,581.75 C1020.86,566.25 1011.63,542.58 1010.02,538.00 C1008.84,534.65 1009.13,533.74 1016.81,516.50 C1021.21,506.60 1026.43,495.01 1028.39,490.75 L 1031.95 483.00 L 999.29 483.00 L 991.52 504.00 C987.25,515.55 983.36,525.00 982.88,525.00 C982.39,525.00 982.00,515.55 982.00,504.00 L 982.00 483.00 ZM 1046.00 593.47 L 1046.00 596.05 L 1061.25 595.78 L 1076.50 595.50 L 1078.24 580.00 L 1087.51 580.00 C1094.29,580.00 1096.92,580.36 1097.29,581.33 C1097.57,582.05 1098.13,585.65 1098.52,589.33 L 1099.23 596.00 L 1130.22 596.00 L 1129.56 592.25 C1129.19,590.19 1126.91,579.50 1124.49,568.50 C1122.07,557.50 1118.50,541.19 1116.55,532.25 C1114.60,523.31 1111.43,508.82 1109.50,500.05 C1107.57,491.28 1106.00,483.86 1106.00,483.55 C1106.00,483.25 1097.93,483.00 1088.08,483.00 L 1070.16 483.00 L 1069.16 486.25 C1068.62,488.04 1067.88,491.30 1067.52,493.50 C1067.17,495.70 1065.98,501.33 1064.90,506.00 C1063.81,510.67 1062.28,517.42 1061.49,521.00 C1055.64,547.73 1053.67,556.67 1050.08,572.70 C1047.83,582.70 1046.00,592.05 1046.00,593.47 ZM 776.00 595.57 C776.00,595.81 782.94,596.00 791.42,596.00 L 806.84 596.00 L 807.37 593.25 C807.66,591.74 808.19,588.14 808.54,585.25 L 809.19 580.00 L 827.79 580.00 L 828.90 586.33 C829.50,589.81 830.00,593.41 830.00,594.33 C830.00,595.82 831.69,596.00 845.50,596.00 C856.35,596.00 861.00,595.66 861.00,594.87 C861.00,593.91 857.76,578.99 851.49,551.00 C848.62,538.19 844.71,520.35 842.95,512.00 C838.30,489.99 837.00,483.75 837.00,483.39 C837.00,483.18 828.75,483.00 818.67,483.00 L 800.33 483.00 L 798.70 491.75 C797.80,496.56 795.75,506.35 794.13,513.50 C792.51,520.65 789.08,536.17 786.51,548.00 C783.94,559.83 780.52,575.27 778.92,582.32 C777.31,589.37 776.00,595.34 776.00,595.57 ZM 682.79 595.45 C683.09,595.75 699.68,596.00 719.67,596.00 L 756.00 596.00 L 756.00 567.00 L 741.50 567.00 C740.98,567.00 740.48,567.00 739.99,567.00 C731.64,567.01 728.06,567.01 727.23,565.50 C726.60,564.36 727.55,562.36 729.22,558.84 C729.35,558.57 729.48,558.29 729.62,558.00 C731.04,554.97 733.26,549.80 734.53,546.50 C735.81,543.20 742.06,528.13 748.43,513.02 C754.79,497.91 760.00,484.97 760.00,484.27 C760.00,483.27 752.33,483.00 723.47,483.00 L 686.94 483.00 L 687.22 496.75 L 687.50 510.50 L 702.22 510.78 L 716.95 511.05 L 715.04 515.78 C713.24,520.20 705.52,538.83 695.46,563.00 C683.89,590.82 682.28,594.94 682.79,595.45 ZM 886.00 483.00 L 886.00 596.00 L 918.00 596.00 L 918.00 483.00 ZM 1093.55 552.39 L 1094.22 556.00 L 1088.11 556.00 C1083.58,556.00 1082.00,555.64 1082.00,554.62 C1082.00,553.86 1082.92,547.22 1084.04,539.87 C1085.16,532.52 1086.35,524.54 1086.69,522.14 C1087.39,517.14 1088.43,518.26 1089.33,525.00 C1090.25,531.84 1092.78,548.32 1093.55,552.39 ZM 824.18 555.49 C823.90,555.77 821.21,556.00 818.20,556.00 L 812.74 556.00 L 813.29 551.75 C816.54,526.65 817.84,520.30 819.26,522.62 C819.76,523.44 821.86,535.63 823.85,549.24 C824.32,552.39 824.46,555.20 824.18,555.49 Z" fill="rgb(3,144,63)"/>
<path d="M 697.50 371.60 C687.20,372.93 674.13,373.33 634.50,373.55 C607.00,373.71 583.38,373.65 582.00,373.42 C580.62,373.20 572.08,372.07 563.00,370.91 C528.77,366.56 506.66,361.65 486.00,353.84 C453.72,341.62 436.38,329.43 428.96,313.74 C426.36,308.26 426.00,306.40 426.00,298.44 C426.00,286.10 429.24,273.84 439.16,248.69 C444.28,235.72 447.53,229.42 455.03,218.00 C472.48,191.39 495.44,169.10 521.40,153.56 C536.21,144.68 567.24,131.34 578.47,129.01 C582.00,128.27 583.99,127.39 583.72,126.66 C580.25,117.23 579.80,114.38 580.19,104.17 C580.57,94.47 580.91,92.91 583.93,87.02 C588.30,78.53 597.38,69.65 605.69,65.76 C617.72,60.13 633.36,60.90 645.68,67.74 C652.68,71.62 660.38,79.94 664.18,87.74 C667.06,93.66 667.52,95.69 667.82,104.03 C668.11,111.76 667.78,114.68 666.09,119.49 C664.94,122.76 664.00,125.94 664.00,126.56 C664.00,127.18 666.59,128.23 669.75,128.91 C677.07,130.48 696.32,136.91 705.80,140.97 C713.88,144.42 738.95,159.36 746.02,164.94 C775.05,187.81 793.60,210.62 807.87,241.00 C816.12,258.56 817.86,265.11 816.04,271.83 C814.46,277.70 811.05,280.00 803.92,280.00 C795.73,280.00 794.09,278.24 787.63,262.50 C781.32,247.14 777.93,240.72 770.28,229.69 C763.09,219.31 761.64,217.52 751.14,206.14 C736.14,189.89 723.77,180.69 701.70,169.42 C687.85,162.34 684.89,161.14 672.03,157.37 C656.49,152.81 649.78,152.00 627.37,152.00 C587.98,152.00 564.53,158.50 533.57,178.01 C504.44,196.36 484.38,217.98 470.43,246.05 C456.73,273.62 450.41,296.10 454.27,303.55 C459.41,313.47 474.77,322.57 501.45,331.50 C541.39,344.86 614.10,351.22 673.00,346.51 C696.15,344.65 733.53,340.43 753.38,337.42 C768.98,335.05 809.57,326.99 828.12,322.57 C831.63,321.73 837.63,320.46 841.46,319.74 C848.37,318.45 848.43,318.41 849.20,314.72 C850.92,306.41 861.72,289.93 870.53,282.18 C885.96,268.60 919.53,260.88 943.34,265.44 C956.65,267.98 968.37,275.15 971.51,282.67 C976.02,293.47 973.63,306.59 965.03,318.17 C960.61,324.12 950.24,333.93 944.05,338.00 C942.79,338.83 940.81,340.23 939.63,341.12 C938.46,342.01 933.82,344.59 929.32,346.85 C908.16,357.47 890.34,357.78 869.11,347.90 C859.19,343.29 855.98,343.09 845.30,346.46 C836.17,349.34 809.80,354.97 792.00,357.85 C753.05,364.16 735.51,366.71 697.50,371.60 ZM 490.60 297.27 C488.14,300.94 484.55,301.80 481.50,299.45 C476.64,295.71 480.80,279.14 492.22,256.68 C506.20,229.18 527.91,207.27 558.00,190.27 C569.17,183.96 590.74,176.39 600.37,175.40 C607.50,174.67 610.00,176.09 610.00,180.85 C610.00,185.43 607.64,187.65 602.05,188.31 C595.80,189.05 581.41,193.94 570.29,199.10 C565.67,201.24 561.70,203.00 561.48,203.00 C560.62,203.00 552.15,208.73 544.78,214.30 C521.57,231.83 501.74,260.29 494.97,285.77 C493.76,290.33 491.79,295.50 490.60,297.27 ZM 618.53 123.19 C622.28,124.00 629.52,122.76 633.50,120.63 C638.35,118.03 641.00,113.20 641.00,106.90 C641.00,100.50 639.46,97.07 634.75,93.00 C631.01,89.76 630.21,89.50 624.10,89.50 C618.35,89.50 617.01,89.87 613.69,92.41 C608.65,96.27 607.00,99.74 607.00,106.50 C607.00,109.58 607.65,113.35 608.44,114.89 C610.07,118.03 615.56,122.55 618.53,123.19 ZM 821.78 535.82 C820.58,528.45 819.58,523.15 819.26,522.62 C817.97,520.51 816.78,525.57 814.13,545.39 C816.74,524.86 817.63,520.00 818.56,520.00 C819.21,520.00 819.99,522.29 820.34,525.25 C820.56,527.17 821.13,531.29 821.78,535.82 ZM 824.17 555.50 C823.89,555.78 821.22,556.00 818.23,556.00 C821.19,556.00 823.84,555.77 824.17,555.50 C824.17,555.50 824.17,555.50 824.17,555.50 Z" fill="rgb(111,182,55)"/>
<path d="M 622.82 638.48 C545.64,638.36 460.16,638.20 366.50,638.01 C132.86,637.52 123.29,637.43 118.00,635.64 C105.88,631.53 97.57,626.49 88.18,617.53 C78.89,608.67 73.23,599.67 68.72,586.62 C66.78,581.00 66.58,577.89 66.23,548.50 C65.81,513.92 66.21,509.61 70.86,498.18 C79.41,477.16 98.56,460.39 121.00,454.27 C127.18,452.59 152.48,452.50 640.50,452.50 C656.85,452.50 672.69,452.50 688.02,452.50 L 686.53 456.23 C685.60,458.58 684.23,461.85 683.48,463.50 C681.18,468.59 671.61,490.62 663.49,509.50 C659.24,519.40 654.96,529.30 653.99,531.50 C653.02,533.70 650.32,540.00 647.98,545.50 C645.64,551.00 643.02,556.85 642.15,558.50 C641.28,560.15 640.05,562.85 639.41,564.50 C637.55,569.27 630.49,586.16 628.74,590.00 C627.87,591.92 624.14,600.47 620.47,609.00 C616.79,617.53 612.71,626.92 611.39,629.87 C610.08,632.82 609.00,636.09 609.00,637.12 C609.00,637.78 609.82,638.21 622.82,638.48 ZM 698.00 434.11 C690.47,435.00 597.29,436.07 587.00,435.39 C575.18,434.60 515.78,427.41 509.49,426.00 C507.29,425.50 501.21,424.60 495.99,423.99 C490.77,423.37 479.75,421.28 471.50,419.34 C451.30,414.58 448.01,414.81 433.60,422.04 C423.09,427.31 422.42,427.50 414.60,427.50 C404.58,427.50 400.50,426.20 378.50,416.01 C369.15,411.68 357.00,406.26 351.50,403.97 C334.78,396.99 312.34,385.19 309.60,381.94 C307.28,379.18 307.01,376.00 309.10,376.00 C310.94,376.00 326.06,381.55 340.50,387.52 C348.75,390.93 359.77,395.38 365.00,397.40 C370.23,399.42 377.91,402.41 382.09,404.04 C391.32,407.65 392.50,407.69 394.61,404.47 C396.16,402.10 396.15,401.82 394.38,399.82 C391.05,396.05 381.52,392.16 338.50,376.99 C331.90,374.66 323.24,371.21 319.25,369.33 C313.15,366.45 312.00,365.52 312.00,363.45 C312.00,361.64 312.54,361.00 314.06,361.00 C315.20,361.00 329.49,365.55 345.81,371.11 L 348.69 372.09 C392.70,387.07 400.29,389.65 402.49,387.27 C402.99,386.72 403.21,385.91 403.52,384.93 C405.05,380.11 396.93,375.97 367.50,366.59 C332.49,355.43 321.68,351.60 319.12,349.41 C316.15,346.88 317.01,345.00 321.14,345.00 C324.21,345.00 357.14,353.62 365.14,356.51 C372.55,359.20 381.03,361.97 392.81,365.56 C405.72,369.49 408.02,369.21 407.97,363.71 C407.93,359.77 405.19,357.55 399.10,356.52 C394.34,355.71 371.39,349.30 352.50,343.50 C345.90,341.47 337.17,338.96 333.11,337.91 C324.97,335.82 323.00,334.66 323.00,331.94 C323.00,328.27 329.53,328.32 350.00,332.15 C364.06,334.79 419.06,348.54 426.64,351.32 C438.44,355.64 444.29,360.99 449.49,372.22 C454.89,383.88 459.47,389.99 462.84,390.04 C464.30,390.05 468.42,390.72 472.00,391.52 C495.87,396.85 523.97,401.94 536.00,403.11 C605.83,409.94 613.28,410.37 648.00,409.63 C664.22,409.28 681.10,408.57 685.50,408.05 C689.90,407.53 699.58,406.60 707.00,405.98 C714.42,405.35 724.55,404.19 729.50,403.38 C734.45,402.57 742.10,401.48 746.50,400.95 C760.85,399.23 769.34,397.88 779.00,395.81 C789.21,393.62 819.17,386.58 825.12,384.98 C827.10,384.44 831.10,384.00 833.98,384.00 C838.75,384.00 839.59,384.36 843.12,387.88 C846.22,390.98 847.00,392.51 847.00,395.43 C847.00,405.52 838.21,411.46 817.50,415.37 C813.10,416.20 798.58,419.14 785.23,421.89 C771.88,424.64 756.58,427.38 751.23,427.97 C742.01,428.99 714.32,432.19 698.00,434.11 ZM 426.00 593.05 L 426.00 596.05 L 454.50 595.50 L 455.27 568.00 C456.59,520.95 457.26,516.94 460.40,537.50 C463.00,554.55 467.02,580.14 468.33,588.00 L 469.59 595.50 L 481.29 595.78 C487.73,595.94 493.00,595.91 493.00,595.72 C493.00,595.52 493.45,592.92 493.99,589.93 C494.53,586.95 495.86,578.65 496.94,571.50 C498.01,564.35 499.55,554.67 500.35,550.00 C501.15,545.33 502.35,537.67 503.03,533.00 C503.71,528.33 504.59,523.89 504.98,523.13 C505.38,522.38 506.00,530.71 506.37,541.63 C506.73,552.56 507.31,569.26 507.66,578.75 L 508.29 596.00 L 537.10 596.00 L 536.54 590.25 C536.23,587.09 535.28,573.92 534.43,561.00 C532.95,538.36 532.05,525.75 530.01,499.00 C529.49,492.12 529.05,485.71 529.03,484.75 C529.00,483.15 527.42,483.00 510.00,483.00 C499.55,483.00 491.00,483.34 491.00,483.75 C491.00,484.48 483.68,529.02 482.41,536.00 C481.88,538.94 481.65,539.18 481.02,537.50 C480.61,536.40 478.33,523.69 475.96,509.25 L 471.65 483.00 L 434.09 483.00 L 433.59 486.25 C433.31,488.04 432.37,500.30 431.50,513.50 C430.64,526.70 429.04,549.32 427.96,563.77 C426.88,578.23 426.00,591.40 426.00,593.05 ZM 259.00 482.85 L 259.00 596.00 L 291.00 596.00 L 291.06 575.75 C291.12,557.81 291.28,555.84 292.49,558.50 C294.27,562.40 304.03,593.12 304.01,594.75 C304.00,595.70 308.06,596.00 321.00,596.00 C330.35,596.00 338.00,595.81 338.00,595.59 C338.00,594.85 331.43,579.85 324.14,563.92 C320.21,555.35 317.02,547.70 317.04,546.92 C317.06,546.14 319.40,543.92 322.24,542.00 C331.85,535.50 335.80,526.52 334.63,513.88 C333.42,500.93 326.88,491.63 315.13,486.16 C309.60,483.59 309.03,483.54 284.25,483.20 ZM 156.00 482.82 L 156.00 596.00 L 188.00 596.00 L 188.00 558.27 L 197.50 557.78 C205.75,557.34 207.89,556.83 213.75,553.89 C221.84,549.83 228.14,542.64 230.46,534.83 C232.62,527.54 232.47,513.67 230.13,506.18 C226.98,496.04 223.12,491.66 213.00,486.69 L 206.50 483.50 L 181.25 483.16 ZM 565.00 483.00 L 565.00 596.00 L 621.00 596.00 L 621.00 567.00 L 609.54 567.00 C596.62,567.00 595.99,566.64 596.01,559.32 C596.03,555.58 596.03,553.52 597.05,552.39 C598.30,551.00 601.09,551.00 607.34,551.00 L 617.73 551.00 L 618.36 546.36 C619.16,540.57 619.17,530.22 618.38,527.28 C617.82,525.21 617.15,525.05 607.66,524.78 C597.78,524.51 597.52,524.44 596.63,521.91 C596.13,520.48 596.04,517.22 596.42,514.66 L 597.12 510.00 L 621.00 510.00 L 621.00 483.00 ZM 365.00 483.00 L 365.00 596.00 L 397.00 596.00 L 397.00 483.00 ZM 194.30 530.93 C189.81,532.18 189.53,532.20 188.67,531.33 C188.30,530.97 188.00,525.34 188.00,518.83 L 188.00 507.00 L 191.60 507.00 C194.36,507.00 195.99,507.79 198.60,510.40 C201.53,513.33 202.00,514.47 202.00,518.65 C201.99,525.20 199.26,529.56 194.30,530.93 ZM 298.84 530.48 C297.19,531.87 294.76,533.00 293.42,533.00 L 291.00 533.00 L 291.00 506.00 L 293.58 506.00 C302.48,506.00 306.38,524.14 298.84,530.48 ZM 1161.66 454.78 C1157.43,454.06 1151.18,453.56 1140.82,453.20 C1155.08,453.46 1158.28,453.80 1160.00,454.27 C1160.49,454.41 1161.05,454.58 1161.66,454.78 ZM 1175.42 460.51 C1175.59,460.60 1175.76,460.68 1175.92,460.76 C1178.45,462.03 1180.54,463.16 1182.44,464.36 C1180.54,463.17 1178.45,462.03 1175.92,460.77 C1175.75,460.68 1175.58,460.60 1175.42,460.51 Z" fill="rgb(213,39,29)"/>
<path d="M 0.00 350.50 L 0.00 0.00 L 640.00 0.00 L 1280.00 0.00 L 1280.00 350.50 L 1280.00 701.00 L 640.00 701.00 L 0.00 701.00 L 0.00 350.50 ZM 1150.50 637.90 C1160.20,636.72 1173.71,632.10 1181.14,627.41 C1191.66,620.77 1202.77,607.92 1208.56,595.68 C1214.52,583.10 1215.20,577.10 1214.75,541.74 C1214.36,511.17 1214.29,510.33 1211.70,502.50 C1207.89,490.97 1202.62,482.61 1193.42,473.49 C1187.00,467.12 1183.40,464.51 1175.92,460.76 C1170.74,458.17 1163.57,455.25 1160.00,454.27 C1153.82,452.59 1128.52,452.50 640.50,452.50 C152.48,452.50 127.18,452.59 121.00,454.27 C98.56,460.39 79.41,477.16 70.86,498.18 C66.21,509.61 65.81,513.92 66.23,548.50 C66.58,577.89 66.78,581.00 68.72,586.62 C73.23,599.67 78.89,608.67 88.18,617.53 C97.57,626.49 105.88,631.53 118.00,635.64 C123.29,637.43 132.86,637.52 366.50,638.01 C874.01,639.07 1141.18,639.03 1150.50,637.90 ZM 698.00 434.11 C714.32,432.19 742.01,428.99 751.23,427.97 C756.58,427.38 771.88,424.64 785.23,421.89 C798.58,419.14 813.10,416.20 817.50,415.37 C838.21,411.46 847.00,405.52 847.00,395.43 C847.00,392.51 846.22,390.98 843.12,387.88 C839.59,384.36 838.75,384.00 833.98,384.00 C831.10,384.00 827.10,384.44 825.12,384.98 C819.17,386.58 789.21,393.62 779.00,395.81 C769.34,397.88 760.85,399.23 746.50,400.95 C742.10,401.48 734.45,402.57 729.50,403.38 C724.55,404.19 714.42,405.35 707.00,405.98 C699.58,406.60 689.90,407.53 685.50,408.05 C681.10,408.57 664.22,409.28 648.00,409.63 C613.28,410.37 605.83,409.94 536.00,403.11 C523.97,401.94 495.87,396.85 472.00,391.52 C468.42,390.72 464.30,390.05 462.84,390.04 C459.47,389.99 454.89,383.88 449.49,372.22 C444.29,360.99 438.44,355.64 426.64,351.32 C419.06,348.54 364.06,334.79 350.00,332.15 C329.53,328.32 323.00,328.27 323.00,331.94 C323.00,334.66 324.97,335.82 333.11,337.91 C337.17,338.96 345.90,341.47 352.50,343.50 C371.39,349.30 394.34,355.71 399.10,356.52 C405.19,357.55 407.93,359.77 407.97,363.71 C408.02,369.21 405.72,369.49 392.81,365.56 C381.03,361.97 372.55,359.20 365.14,356.51 C357.14,353.62 324.21,345.00 321.14,345.00 C317.01,345.00 316.15,346.88 319.12,349.41 C321.68,351.60 332.49,355.43 367.50,366.59 C396.93,375.97 405.05,380.11 403.52,384.93 C401.83,390.28 402.85,390.52 345.81,371.11 C329.49,365.55 315.20,361.00 314.06,361.00 C312.54,361.00 312.00,361.64 312.00,363.45 C312.00,365.52 313.15,366.45 319.25,369.33 C323.24,371.21 331.90,374.66 338.50,376.99 C381.52,392.16 391.05,396.05 394.38,399.82 C396.15,401.82 396.16,402.10 394.61,404.47 C392.50,407.69 391.32,407.65 382.09,404.04 C377.91,402.41 370.23,399.42 365.00,397.40 C359.77,395.38 348.75,390.93 340.50,387.52 C326.06,381.55 310.94,376.00 309.10,376.00 C307.01,376.00 307.28,379.18 309.60,381.94 C312.34,385.19 334.78,396.99 351.50,403.97 C357.00,406.26 369.15,411.68 378.50,416.01 C400.50,426.20 404.58,427.50 414.60,427.50 C422.42,427.50 423.09,427.31 433.60,422.04 C448.01,414.81 451.30,414.58 471.50,419.34 C479.75,421.28 490.77,423.37 495.99,423.99 C501.21,424.60 507.29,425.50 509.49,426.00 C515.78,427.41 575.18,434.60 587.00,435.39 C597.29,436.07 690.47,435.00 698.00,434.11 ZM 697.50 371.60 C735.51,366.71 753.05,364.16 792.00,357.85 C809.80,354.97 836.17,349.34 845.30,346.46 C855.98,343.09 859.19,343.29 869.11,347.90 C890.34,357.78 908.16,357.47 929.32,346.85 C933.82,344.59 938.46,342.01 939.63,341.12 C940.81,340.23 942.79,338.83 944.05,338.00 C950.24,333.93 960.61,324.12 965.03,318.17 C973.63,306.59 976.02,293.47 971.51,282.67 C968.37,275.15 956.65,267.98 943.34,265.44 C919.53,260.88 885.96,268.60 870.53,282.18 C861.72,289.93 850.92,306.41 849.20,314.72 C848.43,318.41 848.37,318.45 841.46,319.74 C837.63,320.46 831.63,321.73 828.12,322.57 C809.57,326.99 768.98,335.05 753.38,337.42 C733.53,340.43 696.15,344.65 673.00,346.51 C614.10,351.22 541.39,344.86 501.45,331.50 C474.77,322.57 459.41,313.47 454.27,303.55 C450.41,296.10 456.73,273.62 470.43,246.05 C484.38,217.98 504.44,196.36 533.57,178.01 C564.53,158.50 587.98,152.00 627.37,152.00 C649.78,152.00 656.49,152.81 672.03,157.37 C684.89,161.14 687.85,162.34 701.70,169.42 C723.77,180.69 736.14,189.89 751.14,206.14 C761.64,217.52 763.09,219.31 770.28,229.69 C777.93,240.72 781.32,247.14 787.63,262.50 C794.09,278.24 795.73,280.00 803.92,280.00 C811.05,280.00 814.46,277.70 816.04,271.83 C817.86,265.11 816.12,258.56 807.87,241.00 C793.60,210.62 775.05,187.81 746.02,164.94 C738.95,159.36 713.88,144.42 705.80,140.97 C696.32,136.91 677.07,130.48 669.75,128.91 C666.59,128.23 664.00,127.18 664.00,126.56 C664.00,125.94 664.94,122.76 666.09,119.49 C667.78,114.68 668.11,111.76 667.82,104.03 C667.52,95.69 667.06,93.66 664.18,87.74 C660.38,79.94 652.68,71.62 645.68,67.74 C633.36,60.90 617.72,60.13 605.69,65.76 C597.38,69.65 588.30,78.53 583.93,87.02 C580.91,92.91 580.57,94.47 580.19,104.17 C579.80,114.38 580.25,117.23 583.72,126.66 C583.99,127.39 582.00,128.27 578.47,129.01 C567.24,131.34 536.21,144.68 521.40,153.56 C495.44,169.10 472.48,191.39 455.03,218.00 C447.53,229.42 444.28,235.72 439.16,248.69 C429.24,273.84 426.00,286.10 426.00,298.44 C426.00,306.40 426.36,308.26 428.96,313.74 C436.38,329.43 453.72,341.62 486.00,353.84 C506.66,361.65 528.77,366.56 563.00,370.91 C572.08,372.07 580.62,373.20 582.00,373.42 C583.38,373.65 607.00,373.71 634.50,373.55 C674.13,373.33 687.20,372.93 697.50,371.60 ZM 490.60 297.27 C491.79,295.50 493.76,290.33 494.97,285.77 C501.74,260.29 521.57,231.83 544.78,214.30 C552.15,208.73 560.62,203.00 561.48,203.00 C561.70,203.00 565.67,201.24 570.29,199.10 C581.41,193.94 595.80,189.05 602.05,188.31 C607.64,187.65 610.00,185.43 610.00,180.85 C610.00,176.09 607.50,174.67 600.37,175.40 C590.74,176.39 569.17,183.96 558.00,190.27 C527.91,207.27 506.20,229.18 492.22,256.68 C480.80,279.14 476.64,295.71 481.50,299.45 C484.55,301.80 488.14,300.94 490.60,297.27 ZM 156.00 539.41 L 156.00 482.82 L 181.25 483.16 L 206.50 483.50 L 213.00 486.69 C223.12,491.66 226.98,496.04 230.13,506.18 C232.47,513.67 232.62,527.54 230.46,534.83 C228.14,542.64 221.84,549.83 213.75,553.89 C207.89,556.83 205.75,557.34 197.50,557.78 L 188.00 558.27 L 188.00 577.14 L 188.00 596.00 L 172.00 596.00 L 156.00 596.00 L 156.00 539.41 ZM 194.30 530.93 C199.26,529.56 201.99,525.20 202.00,518.65 C202.00,514.47 201.53,513.33 198.60,510.40 C195.99,507.79 194.36,507.00 191.60,507.00 L 188.00 507.00 L 188.00 518.83 C188.00,525.34 188.30,530.97 188.67,531.33 C189.53,532.20 189.81,532.18 194.30,530.93 ZM 259.00 539.42 L 259.00 482.85 L 284.25 483.20 C309.03,483.54 309.60,483.59 315.13,486.16 C326.88,491.63 333.42,500.93 334.63,513.88 C335.80,526.52 331.85,535.50 322.24,542.00 C319.40,543.92 317.06,546.14 317.04,546.92 C317.02,547.70 320.21,555.35 324.14,563.92 C331.43,579.85 338.00,594.85 338.00,595.59 C338.00,595.81 330.35,596.00 321.00,596.00 C308.06,596.00 304.00,595.70 304.01,594.75 C304.03,593.12 294.27,562.40 292.49,558.50 C291.28,555.84 291.12,557.81 291.06,575.75 L 291.00 596.00 L 275.00 596.00 L 259.00 596.00 L 259.00 539.42 ZM 298.84 530.48 C306.38,524.14 302.48,506.00 293.58,506.00 L 291.00 506.00 L 291.00 519.50 L 291.00 533.00 L 293.42 533.00 C294.76,533.00 297.19,531.87 298.84,530.48 ZM 365.00 539.50 L 365.00 483.00 L 381.00 483.00 L 397.00 483.00 L 397.00 539.50 L 397.00 596.00 L 381.00 596.00 L 365.00 596.00 L 365.00 539.50 ZM 426.00 593.05 C426.00,591.40 426.88,578.23 427.96,563.77 C429.04,549.32 430.64,526.70 431.50,513.50 C432.37,500.30 433.31,488.04 433.59,486.25 L 434.09 483.00 L 452.87 483.00 L 471.65 483.00 L 475.96 509.25 C478.33,523.69 480.61,536.40 481.02,537.50 C481.65,539.18 481.88,538.94 482.41,536.00 C483.68,529.02 491.00,484.48 491.00,483.75 C491.00,483.34 499.55,483.00 510.00,483.00 C527.42,483.00 529.00,483.15 529.03,484.75 C529.05,485.71 529.49,492.12 530.01,499.00 C532.05,525.75 532.95,538.36 534.43,561.00 C535.28,573.92 536.23,587.09 536.54,590.25 L 537.10 596.00 L 522.69 596.00 L 508.29 596.00 L 507.66 578.75 C507.31,569.26 506.73,552.56 506.37,541.63 C506.00,530.71 505.38,522.38 504.98,523.13 C504.59,523.89 503.71,528.33 503.03,533.00 C502.35,537.67 501.15,545.33 500.35,550.00 C499.55,554.67 498.01,564.35 496.94,571.50 C495.86,578.65 494.53,586.95 493.99,589.93 C493.45,592.92 493.00,595.52 493.00,595.72 C493.00,595.91 487.73,595.94 481.29,595.78 L 469.59 595.50 L 468.33 588.00 C467.02,580.14 463.00,554.55 460.40,537.50 C457.26,516.94 456.59,520.95 455.27,568.00 L 454.50 595.50 L 440.25 595.78 L 426.00 596.05 L 426.00 593.05 ZM 565.00 539.50 L 565.00 483.00 L 593.00 483.00 L 621.00 483.00 L 621.00 496.50 L 621.00 510.00 L 609.06 510.00 L 597.12 510.00 L 596.42 514.66 C596.04,517.22 596.13,520.48 596.63,521.91 C597.52,524.44 597.78,524.51 607.66,524.78 C617.15,525.05 617.82,525.21 618.38,527.28 C619.17,530.22 619.16,540.57 618.36,546.36 L 617.73 551.00 L 607.48 551.00 C596.00,551.00 596.04,550.97 596.01,559.32 C595.99,566.64 596.62,567.00 609.54,567.00 L 621.00 567.00 L 621.00 581.50 L 621.00 596.00 L 593.00 596.00 L 565.00 596.00 L 565.00 539.50 ZM 682.79 595.45 C682.28,594.94 683.89,590.82 695.46,563.00 C705.52,538.83 713.24,520.20 715.04,515.78 L 716.95 511.05 L 702.22 510.78 L 687.50 510.50 L 687.22 496.75 L 686.94 483.00 L 723.47 483.00 C752.33,483.00 760.00,483.27 760.00,484.27 C760.00,484.97 754.79,497.91 748.43,513.02 C742.06,528.13 735.81,543.20 734.53,546.50 C733.26,549.80 731.04,554.97 729.62,558.00 C725.23,567.30 724.83,567.00 741.50,567.00 L 756.00 567.00 L 756.00 581.50 L 756.00 596.00 L 719.67 596.00 C699.68,596.00 683.09,595.75 682.79,595.45 ZM 776.00 595.57 C776.00,595.34 777.31,589.37 778.92,582.32 C780.52,575.27 783.94,559.83 786.51,548.00 C789.08,536.17 792.51,520.65 794.13,513.50 C795.75,506.35 797.80,496.56 798.70,491.75 L 800.33 483.00 L 818.67 483.00 C828.75,483.00 837.00,483.18 837.00,483.39 C837.00,483.75 838.30,489.99 842.95,512.00 C844.71,520.35 848.62,538.19 851.49,551.00 C857.76,578.99 861.00,593.91 861.00,594.87 C861.00,595.66 856.35,596.00 845.50,596.00 C831.69,596.00 830.00,595.82 830.00,594.33 C830.00,593.41 829.50,589.81 828.90,586.33 L 827.79 580.00 L 818.49 580.00 L 809.19 580.00 L 808.54 585.25 C808.19,588.14 807.66,591.74 807.37,593.25 L 806.84 596.00 L 791.42 596.00 C782.94,596.00 776.00,595.81 776.00,595.57 ZM 824.17 555.50 C824.44,555.23 823.83,549.49 822.81,542.75 C821.79,536.01 820.68,528.14 820.34,525.25 C819.99,522.29 819.21,520.00 818.56,520.00 C817.53,520.00 816.56,525.92 813.26,552.25 L 812.79 556.00 L 818.23 556.00 C821.22,556.00 823.89,555.78 824.17,555.50 ZM 886.00 539.50 L 886.00 483.00 L 902.00 483.00 L 918.00 483.00 L 918.00 539.50 L 918.00 596.00 L 902.00 596.00 L 886.00 596.00 L 886.00 539.50 ZM 950.00 539.50 L 950.00 483.00 L 966.00 483.00 L 982.00 483.00 L 982.00 504.00 C982.00,515.55 982.39,525.00 982.88,525.00 C983.36,525.00 987.25,515.55 991.52,504.00 L 999.29 483.00 L 1015.62 483.00 L 1031.95 483.00 L 1028.39 490.75 C1026.43,495.01 1021.21,506.60 1016.81,516.50 C1009.13,533.74 1008.84,534.65 1010.02,538.00 C1011.63,542.58 1020.86,566.25 1027.08,581.75 C1029.79,588.48 1032.00,594.45 1032.00,595.00 C1032.00,595.63 1025.74,596.00 1015.16,596.00 L 998.31 596.00 L 995.21 586.25 C993.51,580.89 990.19,570.31 987.82,562.75 C985.46,555.19 983.18,549.00 982.76,549.00 C982.34,549.00 982.00,559.58 982.00,572.50 L 982.00 596.00 L 966.00 596.00 L 950.00 596.00 L 950.00 539.50 ZM 1046.00 593.47 C1046.00,592.05 1047.83,582.70 1050.08,572.70 C1053.67,556.67 1055.64,547.73 1061.49,521.00 C1062.28,517.42 1063.81,510.67 1064.90,506.00 C1065.98,501.33 1067.17,495.70 1067.52,493.50 C1067.88,491.30 1068.62,488.04 1069.16,486.25 L 1070.16 483.00 L 1088.08 483.00 C1097.93,483.00 1106.00,483.25 1106.00,483.55 C1106.00,483.86 1107.57,491.28 1109.50,500.05 C1111.43,508.82 1114.60,523.31 1116.55,532.25 C1118.50,541.19 1122.07,557.50 1124.49,568.50 C1126.91,579.50 1129.19,590.19 1129.56,592.25 L 1130.22 596.00 L 1114.73 596.00 L 1099.23 596.00 L 1098.52 589.33 C1098.13,585.65 1097.57,582.05 1097.29,581.33 C1096.92,580.36 1094.29,580.00 1087.51,580.00 L 1078.24 580.00 L 1077.37 587.75 L 1076.50 595.50 L 1061.25 595.78 L 1046.00 596.05 L 1046.00 593.47 ZM 1093.55 552.39 C1092.78,548.32 1090.25,531.84 1089.33,525.00 C1088.43,518.26 1087.39,517.14 1086.69,522.14 C1086.35,524.54 1085.16,532.52 1084.04,539.87 C1082.92,547.22 1082.00,553.86 1082.00,554.62 C1082.00,555.64 1083.58,556.00 1088.11,556.00 L 1094.22 556.00 L 1093.55 552.39 ZM 618.53 123.19 C615.56,122.55 610.07,118.03 608.44,114.89 C607.65,113.35 607.00,109.58 607.00,106.50 C607.00,99.74 608.65,96.27 613.69,92.41 C617.01,89.87 618.35,89.50 624.10,89.50 C630.21,89.50 631.01,89.76 634.75,93.00 C639.46,97.07 641.00,100.50 641.00,106.90 C641.00,113.20 638.35,118.03 633.50,120.63 C629.52,122.76 622.28,124.00 618.53,123.19 Z" fill="rgb(254,254,253)"/>
</g>
</svg>